{
	"asset":{
		"generator":"Khronos glTF Blender I/O v3.5.30",
		"version":"2.0"
	},
	"scene":0,
	"scenes":[
		{
			"name":"Scene",
			"nodes":[
				5
			]
		}
	],
	"nodes":[
		{
			"mesh":0,
			"name":"Object_4"
		},
		{
			"mesh":1,
			"name":"Object_5"
		},
		{
			"children":[
				0,
				1
			],
			"name":"The tall one_3",
			"rotation":[
				-0.5399966835975647,
				0.4207276403903961,
				0.4789819121360779,
				0.5495163202285767
			],
			"scale":[
				-0.03205953910946846,
				-0.02995982952415943,
				-0.03302887827157974
			]
		},
		{
			"children":[
				2
			],
			"name":"GLTF_SceneRootNode",
			"rotation":[
				0.70710688829422,
				0,
				0,
				0.7071066498756409
			]
		},
		{
			"children":[
				3
			],
			"name":"root"
		},
		{
			"children":[
				4
			],
			"name":"Sketchfab_model",
			"rotation":[
				-0.70710688829422,
				0,
				0,
				0.7071066498756409
			]
		}
	],
	"materials":[
		{
			"doubleSided":true,
			"name":"Material.001",
			"pbrMetallicRoughness":{
				"baseColorFactor":[
					0.0036420701071619987,
					0.0036420701071619987,
					0.0036420701071619987,
					1
				],
				"roughnessFactor":0.04411759972572327
			}
		},
		{
			"doubleSided":true,
			"name":"Silver_Helmet",
			"pbrMetallicRoughness":{
				"baseColorFactor":[
					1,
					0.9403600096702576,
					0.9848899841308594,
					1
				],
				"roughnessFactor":0.09558819979429245
			}
		}
	],
	"meshes":[
		{
			"name":"Object_0",
			"primitives":[
				{
					"attributes":{
						"POSITION":0,
						"TEXCOORD_0":1,
						"NORMAL":2
					},
					"indices":3,
					"material":0
				}
			]
		},
		{
			"name":"Object_1",
			"primitives":[
				{
					"attributes":{
						"POSITION":4,
						"TEXCOORD_0":5,
						"NORMAL":6
					},
					"indices":7,
					"material":1
				}
			]
		}
	],
	"accessors":[
		{
			"bufferView":0,
			"componentType":5126,
			"count":1076,
			"max":[
				18.744922637939453,
				14.713501930236816,
				1.8068801164627075
			],
			"min":[
				3.3771142959594727,
				-14.457592010498047,
				-5.19800329208374
			],
			"type":"VEC3"
		},
		{
			"bufferView":1,
			"componentType":5126,
			"count":1076,
			"type":"VEC2"
		},
		{
			"bufferView":2,
			"componentType":5126,
			"count":1076,
			"type":"VEC3"
		},
		{
			"bufferView":3,
			"componentType":5123,
			"count":4800,
			"type":"SCALAR"
		},
		{
			"bufferView":4,
			"componentType":5126,
			"count":29167,
			"max":[
				19.068456649780273,
				17.7945499420166,
				13.394270896911621
			],
			"min":[
				-20.77075958251953,
				-17.50218963623047,
				-18.22902488708496
			],
			"type":"VEC3"
		},
		{
			"bufferView":5,
			"componentType":5126,
			"count":29167,
			"type":"VEC2"
		},
		{
			"bufferView":6,
			"componentType":5126,
			"count":29167,
			"type":"VEC3"
		},
		{
			"bufferView":7,
			"componentType":5123,
			"count":145536,
			"type":"SCALAR"
		}
	],
	"bufferViews":[
		{
			"buffer":0,
			"byteLength":12912,
			"byteOffset":0,
			"target":34962
		},
		{
			"buffer":0,
			"byteLength":8608,
			"byteOffset":12912,
			"target":34962
		},
		{
			"buffer":0,
			"byteLength":12912,
			"byteOffset":21520,
			"target":34962
		},
		{
			"buffer":0,
			"byteLength":9600,
			"byteOffset":34432,
			"target":34963
		},
		{
			"buffer":0,
			"byteLength":350004,
			"byteOffset":44032,
			"target":34962
		},
		{
			"buffer":0,
			"byteLength":233336,
			"byteOffset":394036,
			"target":34962
		},
		{
			"buffer":0,
			"byteLength":350004,
			"byteOffset":627372,
			"target":34962
		},
		{
			"buffer":0,
			"byteLength":291072,
			"byteOffset":977376,
			"target":34963
		}
	],
	"buffers":[
		{
			"byteLength":1268448,
			"uri":"data:application/octet-stream;base64,"
		}
	]
}
